<svg xmlns="http://www.w3.org/2000/svg" viewBox="0 0 32 32" width="32" height="32">
    <rect x="0.5" y="0.5" width="31" height="31" rx="6" ry="6" fill="#0D1117" stroke="#21262D" stroke-width="1"/>
    <g transform="translate(4 4)" fill="none" stroke="#3FB950" stroke-width="2.25" stroke-linecap="round" stroke-linejoin="round">
        <path d="M18 3a3 3 0 0 0-3 3v12a3 3 0 0 0 3 3 3 3 0 0 0 3-3 3 3 0 0 0-3-3H6a3 3 0 0 0-3 3 3 3 0 0 0 3 3 3 3 0 0 0 3-3V6a3 3 0 0 0-3-3 3 3 0 0 0-3 3 3 3 0 0 0 3 3h12a3 3 0 0 0 3-3 3 3 0 0 0-3-3z"/>
    </g>
</svg>
